<svg version="1.1" viewBox="0.0 0.0 960.0 720.0" fill="none" stroke="none" stroke-linecap="square" stroke-miterlimit="10" xmlns:xlink="http://www.w3.org/1999/xlink" xmlns="http://www.w3.org/2000/svg"><clipPath id="p.0"><path d="m0 0l960.0 0l0 720.0l-960.0 0l0 -720.0z" clip-rule="nonzero"/></clipPath><g clip-path="url(#p.0)"><path fill="#000000" fill-opacity="0.0" d="m0 0l960.0 0l0 720.0l-960.0 0z" fill-rule="evenodd"/><path fill="#000000" fill-opacity="0.0" d="m206.04462 176.71916l493.88977 0l0 260.8504l-493.88977 0z" fill-rule="evenodd"/><path stroke="#000000" stroke-width="1.0" stroke-linejoin="round" stroke-linecap="butt" d="m206.04462 176.71916l493.88977 0l0 260.8504l-493.88977 0z" fill-rule="evenodd"/><path fill="#000000" fill-opacity="0.0" d="m199.87927 131.17586l117.29132 0l0 45.543304l-117.29132 0z" fill-rule="evenodd"/><path fill="#000000" d="m217.67615 154.92711q0.484375 0 0.921875 0.203125q0.4375 0.1875 0.765625 0.515625q0.328125 0.328125 0.515625 0.765625q0.203125 0.4375 0.203125 0.921875q0 0.5 -0.203125 0.9375q-0.1875 0.421875 -0.515625 0.75q-0.328125 0.328125 -0.765625 0.515625q-0.4375 0.1875 -0.921875 0.1875q-0.5 0 -0.9375 -0.1875q-0.421875 -0.1875 -0.75 -0.515625q-0.328125 -0.328125 -0.515625 -0.75q-0.1875 -0.4375 -0.1875 -0.9375q0 -0.484375 0.1875 -0.921875q0.1875 -0.4375 0.515625 -0.765625q0.328125 -0.328125 0.75 -0.515625q0.4375 -0.203125 0.9375 -0.203125zm0 11.453125q0.484375 0 0.921875 0.203125q0.4375 0.1875 0.765625 0.515625q0.328125 0.328125 0.515625 0.765625q0.203125 0.4375 0.203125 0.921875q0 0.5 -0.203125 0.9375q-0.1875 0.421875 -0.515625 0.75q-0.328125 0.328125 -0.765625 0.515625q-0.4375 0.1875 -0.921875 0.1875q-0.5 0 -0.9375 -0.1875q-0.421875 -0.1875 -0.75 -0.515625q-0.328125 -0.328125 -0.515625 -0.75q-0.1875 -0.4375 -0.1875 -0.9375q0 -0.484375 0.1875 -0.921875q0.1875 -0.4375 0.515625 -0.765625q0.328125 -0.328125 0.75 -0.515625q0.4375 -0.203125 0.9375 -0.203125zm23.90625 4.515625l-2.71875 0l0 -10.015625q0 -1.8125 -0.6875 -2.703125q-0.671875 -0.90625 -1.9375 -0.90625q-0.546875 0 -1.03125 0.15625q-0.46875 0.140625 -0.984375 0.515625q-0.515625 0.359375 -1.125 0.984375q-0.609375 0.625 -1.40625 1.5625l0 10.40625l-2.71875 0l0 -22.078125l2.71875 0l0 6.390625l-0.09375 2.46875q0.640625 -0.765625 1.25 -1.28125q0.625 -0.53125 1.234375 -0.859375q0.625 -0.328125 1.265625 -0.46875q0.640625 -0.140625 1.328125 -0.140625q2.34375 0 3.625 1.4375q1.28125 1.421875 1.28125 4.296875l0 10.234375zm18.640625 -7.96875q0 1.828125 -0.515625 3.359375q-0.515625 1.515625 -1.484375 2.609375q-0.96875 1.078125 -2.359375 1.6875q-1.390625 0.59375 -3.15625 0.59375q-1.6875 0 -3.03125 -0.515625q-1.328125 -0.53125 -2.265625 -1.546875q-0.921875 -1.015625 -1.421875 -2.515625q-0.484375 -1.5 -0.484375 -3.453125q0 -1.828125 0.515625 -3.328125q0.515625 -1.515625 1.484375 -2.59375q0.96875 -1.09375 2.359375 -1.6875q1.390625 -0.609375 3.15625 -0.609375q1.6875 0 3.015625 0.53125q1.34375 0.515625 2.265625 1.53125q0.9375 1.0 1.421875 2.5q0.5 1.5 0.5 3.4375zm-2.78125 0.125q0 -1.453125 -0.328125 -2.53125q-0.3125 -1.09375 -0.90625 -1.8125q-0.59375 -0.734375 -1.453125 -1.09375q-0.84375 -0.375 -1.890625 -0.375q-1.21875 0 -2.09375 0.484375q-0.859375 0.46875 -1.421875 1.265625q-0.546875 0.796875 -0.8125 1.859375q-0.25 1.046875 -0.25 2.203125q0 1.453125 0.3125 2.546875q0.328125 1.09375 0.921875 1.828125q0.59375 0.71875 1.4375 1.09375q0.84375 0.359375 1.90625 0.359375q1.21875 0 2.078125 -0.46875q0.875 -0.484375 1.421875 -1.28125q0.5625 -0.796875 0.8125 -1.84375q0.265625 -1.0625 0.265625 -2.234375zm19.140625 3.5625q0 0.828125 -0.28125 1.484375q-0.28125 0.65625 -0.765625 1.171875q-0.484375 0.5 -1.125 0.859375q-0.640625 0.359375 -1.375 0.59375q-0.71875 0.234375 -1.484375 0.34375q-0.765625 0.109375 -1.5 0.109375q-1.59375 0 -2.9375 -0.140625q-1.328125 -0.140625 -2.609375 -0.453125l0 -2.5q1.375 0.390625 2.734375 0.59375q1.359375 0.203125 2.703125 0.203125q1.953125 0 2.890625 -0.53125q0.9375 -0.53125 0.9375 -1.515625q0 -0.421875 -0.15625 -0.75q-0.140625 -0.34375 -0.53125 -0.640625q-0.390625 -0.3125 -1.21875 -0.640625q-0.8125 -0.328125 -2.234375 -0.75q-1.0625 -0.3125 -1.96875 -0.703125q-0.890625 -0.40625 -1.546875 -0.953125q-0.65625 -0.546875 -1.03125 -1.28125q-0.375 -0.734375 -0.375 -1.734375q0 -0.65625 0.296875 -1.4375q0.3125 -0.78125 1.046875 -1.453125q0.734375 -0.671875 1.984375 -1.109375q1.25 -0.453125 3.125 -0.453125q0.921875 0 2.046875 0.109375q1.125 0.09375 2.34375 0.34375l0 2.421875q-1.28125 -0.3125 -2.4375 -0.453125q-1.140625 -0.15625 -1.984375 -0.15625q-1.015625 0 -1.71875 0.15625q-0.6875 0.15625 -1.125 0.4375q-0.421875 0.265625 -0.609375 0.640625q-0.1875 0.359375 -0.1875 0.78125q0 0.421875 0.15625 0.765625q0.171875 0.34375 0.609375 0.671875q0.453125 0.3125 1.25 0.640625q0.796875 0.3125 2.078125 0.6875q1.390625 0.40625 2.34375 0.859375q0.953125 0.4375 1.546875 0.984375q0.59375 0.546875 0.84375 1.234375q0.265625 0.6875 0.265625 1.5625zm17.8125 4.0625q-0.921875 0.234375 -1.90625 0.328125q-0.984375 0.109375 -2.0 0.109375q-2.953125 0 -4.40625 -1.328125q-1.453125 -1.34375 -1.453125 -4.109375l0 -8.1875l-4.390625 0l0 -2.28125l4.390625 0l0 -4.3125l2.71875 -0.703125l0 5.015625l7.046875 0l0 2.28125l-7.046875 0l0 7.96875q0 1.6875 0.890625 2.53125q0.90625 0.828125 2.65625 0.828125q0.75 0 1.640625 -0.109375q0.890625 -0.125 1.859375 -0.375l0 2.34375z" fill-rule="nonzero"/><path fill="#000000" fill-opacity="0.0" d="m211.4462 240.0l482.33072 0l0 120.0l-482.33072 0z" fill-rule="evenodd"/><path stroke="#0000ff" stroke-width="4.0" stroke-linejoin="round" stroke-linecap="butt" d="m211.4462 240.0l482.33072 0l0 120.0l-482.33072 0z" fill-rule="evenodd"/><path fill="#000000" fill-opacity="0.0" d="m122.70079 210.67455l444.5039 0l0 51.87401l-444.5039 0z" fill-rule="evenodd"/><path fill="#000000" fill-opacity="0.0" d="m7.71916 277.03937l218.86613 0l0 45.543304l-218.86613 0z" fill-rule="evenodd"/><path fill="#0000ff" d="m33.172287 308.54062q0 2.1875 -0.625 3.78125q-0.6093769 1.59375 -1.7187519 2.65625q-1.09375 1.046875 -2.59375 1.5625q-1.5 0.5 -3.265625 0.5q-0.59375 0 -1.1875 -0.078125q-0.59375 -0.078125 -1.078125 -0.203125l0 6.203125l-3.8125 0l0 -22.078125l3.296875 0l0.09375 2.34375q0.484375 -0.609375 1.0 -1.109375q0.53125 -0.5 1.140625 -0.84375q0.609375 -0.359375 1.3125 -0.546875q0.703125 -0.1875 1.578125 -0.1875q1.40625 0 2.5 0.5625q1.09375 0.5625 1.828125 1.609375q0.7500019 1.03125 1.1406269 2.515625q0.390625 1.46875 0.390625 3.3125zm-4.000002 0.15625q0 -1.3125 -0.1875 -2.234375q-0.1875 -0.921875 -0.546875 -1.515625q-0.34375 -0.59375 -0.859375 -0.859375q-0.5 -0.28125 -1.15625 -0.28125q-0.96875 0 -1.859375 0.78125q-0.875 0.78125 -1.859375 2.125l0 6.9375q0.453125 0.171875 1.109375 0.28125q0.671875 0.109375 1.359375 0.109375q0.90625 0 1.640625 -0.375q0.75 -0.375 1.265625 -1.0625q0.53125 -0.6875 0.8125 -1.671875q0.28125 -1.0 0.28125 -2.234375zm17.265627 8.0625l-0.09375 -2.078125q-0.5 0.53125 -1.046875 0.984375q-0.546875 0.4375 -1.203125 0.765625q-0.65625 0.328125 -1.4375 0.5q-0.765625 0.1875 -1.6875 0.1875q-1.21875 0 -2.140625 -0.359375q-0.921875 -0.359375 -1.546875 -1.0q-0.625 -0.640625 -0.953125 -1.546875q-0.3125 -0.90625 -0.3125 -2.0q0 -1.125 0.46875 -2.078125q0.484375 -0.953125 1.453125 -1.640625q0.984375 -0.6875 2.4375 -1.078125q1.46875 -0.390625 3.4375 -0.390625l2.078125 0l0 -0.953125q0 -0.609375 -0.171875 -1.09375q-0.171875 -0.5 -0.5625 -0.84375q-0.375 -0.34375 -0.984375 -0.53125q-0.609375 -0.1875 -1.5 -0.1875q-1.40625 0 -2.78125 0.328125q-1.359375 0.3125 -2.640625 0.890625l0 -3.046875q1.140625 -0.453125 2.625 -0.75q1.5 -0.296875 3.109375 -0.296875q1.765625 0 3.03125 0.34375q1.265625 0.328125 2.078125 1.0q0.828125 0.671875 1.21875 1.6875q0.390625 1.0 0.390625 2.34375l0 10.84375l-3.265625 0zm-0.546875 -7.015625l-2.328125 0q-0.96875 0 -1.640625 0.1875q-0.671875 0.1875 -1.09375 0.515625q-0.421875 0.328125 -0.625 0.765625q-0.1875 0.421875 -0.1875 0.90625q0 0.96875 0.625 1.484375q0.625 0.5 1.703125 0.5q0.796875 0 1.65625 -0.578125q0.859375 -0.578125 1.890625 -1.65625l0 -2.125zm18.40625 -2.6875q0.03125 -0.890625 -0.09375 -1.515625q-0.109375 -0.625 -0.375 -1.03125q-0.25 -0.40625 -0.625 -0.59375q-0.375 -0.1875 -0.859375 -0.1875q-0.84375 0 -1.75 0.703125q-0.890625 0.6875 -1.96875 2.28125l0 10.046875l-3.90625 0l0 -15.875l3.453125 0l0.140625 2.3125q0.390625 -0.609375 0.875 -1.09375q0.5 -0.484375 1.09375 -0.828125q0.609375 -0.359375 1.34375 -0.546875q0.734375 -0.1875 1.609375 -0.1875q1.203125 0 2.125 0.421875q0.9375 0.40625 1.5625 1.21875q0.640625 0.8125 0.9375 2.046875q0.3125 1.21875 0.265625 2.828125l-3.828125 0zm20.46875 9.546875q-1.03125 0.234375 -2.078125 0.375q-1.046875 0.140625 -1.984375 0.140625q-1.5625 0 -2.703125 -0.328125q-1.125 -0.328125 -1.875 -1.0q-0.734375 -0.671875 -1.09375 -1.703125q-0.34375 -1.046875 -0.34375 -2.484375l0 -7.75l-4.265625 0l0 -2.96875l4.265625 0l0 -4.0625l3.90625 -1.015625l0 5.078125l6.171875 0l0 2.96875l-6.171875 0l0 7.46875q0 1.359375 0.625 2.0625q0.625 0.6875 2.09375 0.6875q0.9375 0 1.828125 -0.15625q0.890625 -0.15625 1.625 -0.359375l0 3.046875zm14.171875 6.71875q-3.796875 -3.21875 -5.703125 -6.90625q-1.890625 -3.6875 -1.890625 -7.9375q0 -2.375 0.5625 -4.484375q0.5625 -2.125 1.578125 -3.984375q1.03125 -1.859375 2.4375 -3.484375q1.421875 -1.640625 3.109375 -3.0625l2.171875 2.171875q-3.046875 2.734375 -4.578125 5.90625q-1.53125 3.171875 -1.53125 6.671875q0 3.546875 1.53125 6.828125q1.53125 3.265625 4.578125 5.96875l-2.265625 2.3125zm21.015625 -6.71875q-1.03125 0.234375 -2.078125 0.375q-1.046875 0.140625 -1.984375 0.140625q-1.5625 0 -2.703125 -0.328125q-1.125 -0.328125 -1.875 -1.0q-0.734375 -0.671875 -1.09375 -1.703125q-0.34375 -1.046875 -0.34375 -2.484375l0 -7.75l-4.265625 0l0 -2.96875l4.265625 0l0 -4.0625l3.90625 -1.015625l0 5.078125l6.171875 0l0 2.96875l-6.171875 0l0 7.46875q0 1.359375 0.625 2.0625q0.625 0.6875 2.09375 0.6875q0.9375 0 1.828125 -0.15625q0.890625 -0.15625 1.625 -0.359375l0 3.046875zm14.71875 -9.546875q0.03125 -0.890625 -0.09375 -1.515625q-0.109375 -0.625 -0.375 -1.03125q-0.25 -0.40625 -0.625 -0.59375q-0.375 -0.1875 -0.859375 -0.1875q-0.84375 0 -1.75 0.703125q-0.890625 0.6875 -1.96875 2.28125l0 10.046875l-3.90625 0l0 -15.875l3.453125 0l0.140625 2.3125q0.390625 -0.609375 0.875 -1.09375q0.5 -0.484375 1.09375 -0.828125q0.609375 -0.359375 1.34375 -0.546875q0.734375 -0.1875 1.609375 -0.1875q1.203125 0 2.125 0.421875q0.9375 0.40625 1.5625 1.21875q0.640625 0.8125 0.9375 2.046875q0.3125 1.21875 0.265625 2.828125l-3.828125 0zm17.328125 9.703125l-0.09375 -2.078125q-0.5 0.53125 -1.046875 0.984375q-0.546875 0.4375 -1.203125 0.765625q-0.65625 0.328125 -1.4375 0.5q-0.765625 0.1875 -1.6875 0.1875q-1.21875 0 -2.140625 -0.359375q-0.921875 -0.359375 -1.546875 -1.0q-0.625 -0.640625 -0.953125 -1.546875q-0.3125 -0.90625 -0.3125 -2.0q0 -1.125 0.46875 -2.078125q0.484375 -0.953125 1.453125 -1.640625q0.984375 -0.6875 2.4375 -1.078125q1.46875 -0.390625 3.4375 -0.390625l2.078125 0l0 -0.953125q0 -0.609375 -0.171875 -1.09375q-0.171875 -0.5 -0.5625 -0.84375q-0.375 -0.34375 -0.984375 -0.53125q-0.609375 -0.1875 -1.5 -0.1875q-1.40625 0 -2.78125 0.328125q-1.359375 0.3125 -2.640625 0.890625l0 -3.046875q1.140625 -0.453125 2.625 -0.75q1.5 -0.296875 3.109375 -0.296875q1.765625 0 3.03125 0.34375q1.265625 0.328125 2.078125 1.0q0.828125 0.671875 1.21875 1.6875q0.390625 1.0 0.390625 2.34375l0 10.84375l-3.265625 0zm-0.546875 -7.015625l-2.328125 0q-0.96875 0 -1.640625 0.1875q-0.671875 0.1875 -1.09375 0.515625q-0.421875 0.328125 -0.625 0.765625q-0.1875 0.421875 -0.1875 0.90625q0 0.96875 0.625 1.484375q0.625 0.5 1.703125 0.5q0.796875 0 1.65625 -0.578125q0.859375 -0.578125 1.890625 -1.65625l0 -2.125zm21.03125 6.40625q-1.125 0.453125 -2.328125 0.671875q-1.203125 0.21875 -2.515625 0.21875q-1.890625 0 -3.390625 -0.515625q-1.5 -0.515625 -2.546875 -1.53125q-1.046875 -1.015625 -1.609375 -2.515625q-0.546875 -1.5 -0.546875 -3.46875q0 -1.90625 0.59375 -3.453125q0.609375 -1.546875 1.703125 -2.640625q1.09375 -1.09375 2.625 -1.6875q1.546875 -0.59375 3.4375 -0.59375q1.546875 0 2.59375 0.171875q1.0625 0.15625 1.90625 0.40625l0 3.703125q-0.96875 -0.484375 -2.109375 -0.75q-1.125 -0.265625 -2.140625 -0.265625q-1.0625 0 -1.90625 0.359375q-0.84375 0.359375 -1.421875 1.0q-0.578125 0.640625 -0.890625 1.5625q-0.296875 0.90625 -0.296875 2.0q0 1.140625 0.328125 2.046875q0.328125 0.90625 0.921875 1.546875q0.609375 0.625 1.453125 0.96875q0.84375 0.328125 1.875 0.328125q0.5 0 1.046875 -0.0625q0.5625 -0.078125 1.109375 -0.203125q0.5625 -0.140625 1.09375 -0.3125q0.546875 -0.171875 1.015625 -0.375l0 3.390625zm14.578125 0.609375l-5.859375 -7.9375l0 7.9375l-3.8125 0l0 -22.078125l3.8125 0l0 12.921875l5.546875 -6.71875l4.765625 0l-6.4375 7.234375l6.96875 8.640625l-4.984375 0zm11.421875 -23.296875q3.828125 3.1875 5.703125 6.890625q1.875 3.6875 1.875 7.953125q0 2.375 -0.5625 4.484375q-0.5625 2.109375 -1.578125 3.984375q-1.0 1.875 -2.40625 3.5q-1.40625 1.640625 -3.09375 3.046875l-2.1875 -2.171875q3.0625 -2.734375 4.59375 -5.921875q1.53125 -3.1875 1.53125 -6.6875q0 -3.53125 -1.53125 -6.8125q-1.53125 -3.28125 -4.59375 -6.0l2.25 -2.265625z" fill-rule="nonzero"/><path fill="#000000" fill-opacity="0.0" d="m217.61942 245.40158l470.74014 0l0 108.81888l-470.74014 0z" fill-rule="evenodd"/><path stroke="#6aa84f" stroke-width="4.0" stroke-linejoin="round" stroke-linecap="butt" d="m217.61942 245.40158l470.74014 0l0 108.81888l-470.74014 0z" fill-rule="evenodd"/><path fill="#000000" fill-opacity="0.0" d="m706.9659 262.54855l232.28345 0l0 88.566925l-232.28345 0z" fill-rule="evenodd"/><path fill="#38761d" d="m732.419 294.0498q0 2.1875 -0.625 3.78125q-0.609375 1.59375 -1.71875 2.65625q-1.09375 1.046875 -2.59375 1.5625q-1.5 0.5 -3.265625 0.5q-0.59375 0 -1.1875 -0.078125q-0.59375 -0.078125 -1.078125 -0.203125l0 6.203125l-3.8125 0l0 -22.078125l3.296875 0l0.09375 2.34375q0.484375 -0.609375 1.0 -1.109375q0.53125 -0.5 1.140625 -0.84375q0.609375 -0.359375 1.3125 -0.546875q0.703125 -0.1875 1.578125 -0.1875q1.40625 0 2.5 0.5625q1.09375 0.5625 1.828125 1.609375q0.75 1.03125 1.140625 2.515625q0.390625 1.46875 0.390625 3.3125zm-4.0 0.15625q0 -1.3125 -0.1875 -2.234375q-0.1875 -0.921875 -0.546875 -1.515625q-0.34375 -0.59375 -0.859375 -0.859375q-0.5 -0.28125 -1.15625 -0.28125q-0.96875 0 -1.859375 0.78125q-0.875 0.78125 -1.859375 2.125l0 6.9375q0.453125 0.171875 1.109375 0.28125q0.671875 0.109375 1.359375 0.109375q0.90625 0 1.640625 -0.375q0.75 -0.375 1.265625 -1.0625q0.53125 -0.6875 0.8125 -1.671875q0.28125 -1.0 0.28125 -2.234375zm17.265625 8.0625l-0.09375 -2.078125q-0.5 0.53125 -1.046875 0.984375q-0.546875 0.4375 -1.203125 0.765625q-0.65625 0.328125 -1.4375 0.5q-0.765625 0.1875 -1.6875 0.1875q-1.21875 0 -2.140625 -0.359375q-0.921875 -0.359375 -1.546875 -1.0q-0.625 -0.640625 -0.953125 -1.546875q-0.3125 -0.90625 -0.3125 -2.0q0 -1.125 0.46875 -2.078125q0.484375 -0.953125 1.453125 -1.640625q0.984375 -0.6875 2.4375 -1.078125q1.46875 -0.390625 3.4375 -0.390625l2.078125 0l0 -0.953125q0 -0.609375 -0.171875 -1.09375q-0.171875 -0.5 -0.5625 -0.84375q-0.375 -0.34375 -0.984375 -0.53125q-0.609375 -0.1875 -1.5 -0.1875q-1.40625 0 -2.78125 0.328125q-1.359375 0.3125 -2.640625 0.890625l0 -3.046875q1.140625 -0.453125 2.625 -0.75q1.5 -0.296875 3.109375 -0.296875q1.765625 0 3.03125 0.34375q1.265625 0.328125 2.078125 1.0q0.828125 0.671875 1.21875 1.6875q0.390625 1.0 0.390625 2.34375l0 10.84375l-3.265625 0zm-0.546875 -7.015625l-2.328125 0q-0.96875 0 -1.640625 0.1875q-0.671875 0.1875 -1.09375 0.515625q-0.421875 0.328125 -0.625 0.765625q-0.1875 0.421875 -0.1875 0.90625q0 0.96875 0.625 1.484375q0.625 0.5 1.703125 0.5q0.796875 0 1.65625 -0.578125q0.859375 -0.578125 1.890625 -1.65625l0 -2.125zm18.40625 -2.6875q0.03125 -0.890625 -0.09375 -1.515625q-0.109375 -0.625 -0.375 -1.03125q-0.25 -0.40625 -0.625 -0.59375q-0.375 -0.1875 -0.859375 -0.1875q-0.84375 0 -1.75 0.703125q-0.890625 0.6875 -1.96875 2.28125l0 10.046875l-3.90625 0l0 -15.875l3.453125 0l0.140625 2.3125q0.390625 -0.609375 0.875 -1.09375q0.5 -0.484375 1.09375 -0.828125q0.609375 -0.359375 1.34375 -0.546875q0.734375 -0.1875 1.609375 -0.1875q1.203125 0 2.125 0.421875q0.9375 0.40625 1.5625 1.21875q0.640625 0.8125 0.9375 2.046875q0.3125 1.21875 0.265625 2.828125l-3.828125 0zm20.46875 9.546875q-1.03125 0.234375 -2.078125 0.375q-1.046875 0.140625 -1.984375 0.140625q-1.5625 0 -2.703125 -0.328125q-1.125 -0.328125 -1.875 -1.0q-0.734375 -0.671875 -1.09375 -1.703125q-0.34375 -1.046875 -0.34375 -2.484375l0 -7.75l-4.265625 0l0 -2.96875l4.265625 0l0 -4.0625l3.90625 -1.015625l0 5.078125l6.171875 0l0 2.96875l-6.171875 0l0 7.46875q0 1.359375 0.625 2.0625q0.625 0.6875 2.09375 0.6875q0.9375 0 1.828125 -0.15625q0.890625 -0.15625 1.625 -0.359375l0 3.046875zm14.171875 6.71875q-3.796875 -3.21875 -5.703125 -6.90625q-1.890625 -3.6875 -1.890625 -7.9375q0 -2.375 0.5625 -4.484375q0.5625 -2.125 1.578125 -3.984375q1.03125 -1.859375 2.4375 -3.484375q1.421875 -1.640625 3.109375 -3.0625l2.171875 2.171875q-3.046875 2.734375 -4.578125 5.90625q-1.53125 3.171875 -1.53125 6.671875q0 3.546875 1.53125 6.828125q1.53125 3.265625 4.578125 5.96875l-2.265625 2.3125zm21.015625 -6.71875q-1.03125 0.234375 -2.078125 0.375q-1.046875 0.140625 -1.984375 0.140625q-1.5625 0 -2.703125 -0.328125q-1.125 -0.328125 -1.875 -1.0q-0.734375 -0.671875 -1.09375 -1.703125q-0.34375 -1.046875 -0.34375 -2.484375l0 -7.75l-4.265625 0l0 -2.96875l4.265625 0l0 -4.0625l3.90625 -1.015625l0 5.078125l6.171875 0l0 2.96875l-6.171875 0l0 7.46875q0 1.359375 0.625 2.0625q0.625 0.6875 2.09375 0.6875q0.9375 0 1.828125 -0.15625q0.890625 -0.15625 1.625 -0.359375l0 3.046875zm14.71875 -9.546875q0.03125 -0.890625 -0.09375 -1.515625q-0.109375 -0.625 -0.375 -1.03125q-0.25 -0.40625 -0.625 -0.59375q-0.375 -0.1875 -0.859375 -0.1875q-0.84375 0 -1.75 0.703125q-0.890625 0.6875 -1.96875 2.28125l0 10.046875l-3.90625 0l0 -15.875l3.453125 0l0.140625 2.3125q0.390625 -0.609375 0.875 -1.09375q0.5 -0.484375 1.09375 -0.828125q0.609375 -0.359375 1.34375 -0.546875q0.734375 -0.1875 1.609375 -0.1875q1.203125 0 2.125 0.421875q0.9375 0.40625 1.5625 1.21875q0.640625 0.8125 0.9375 2.046875q0.3125 1.21875 0.265625 2.828125l-3.828125 0zm17.328125 9.703125l-0.09375 -2.078125q-0.5 0.53125 -1.046875 0.984375q-0.546875 0.4375 -1.203125 0.765625q-0.65625 0.328125 -1.4375 0.5q-0.765625 0.1875 -1.6875 0.1875q-1.21875 0 -2.140625 -0.359375q-0.921875 -0.359375 -1.546875 -1.0q-0.625 -0.640625 -0.953125 -1.546875q-0.3125 -0.90625 -0.3125 -2.0q0 -1.125 0.46875 -2.078125q0.484375 -0.953125 1.453125 -1.640625q0.984375 -0.6875 2.4375 -1.078125q1.46875 -0.390625 3.4375 -0.390625l2.078125 0l0 -0.953125q0 -0.609375 -0.171875 -1.09375q-0.171875 -0.5 -0.5625 -0.84375q-0.375 -0.34375 -0.984375 -0.53125q-0.609375 -0.1875 -1.5 -0.1875q-1.40625 0 -2.78125 0.328125q-1.359375 0.3125 -2.640625 0.890625l0 -3.046875q1.140625 -0.453125 2.625 -0.75q1.5 -0.296875 3.109375 -0.296875q1.765625 0 3.03125 0.34375q1.265625 0.328125 2.078125 1.0q0.828125 0.671875 1.21875 1.6875q0.390625 1.0 0.390625 2.34375l0 10.84375l-3.265625 0zm-0.546875 -7.015625l-2.328125 0q-0.96875 0 -1.640625 0.1875q-0.671875 0.1875 -1.09375 0.515625q-0.421875 0.328125 -0.625 0.765625q-0.1875 0.421875 -0.1875 0.90625q0 0.96875 0.625 1.484375q0.625 0.5 1.703125 0.5q0.796875 0 1.65625 -0.578125q0.859375 -0.578125 1.890625 -1.65625l0 -2.125zm21.03125 6.40625q-1.125 0.453125 -2.328125 0.671875q-1.203125 0.21875 -2.515625 0.21875q-1.890625 0 -3.390625 -0.515625q-1.5 -0.515625 -2.546875 -1.53125q-1.046875 -1.015625 -1.609375 -2.515625q-0.546875 -1.5 -0.546875 -3.46875q0 -1.90625 0.59375 -3.453125q0.609375 -1.546875 1.703125 -2.640625q1.09375 -1.09375 2.625 -1.6875q1.546875 -0.59375 3.4375 -0.59375q1.546875 0 2.59375 0.171875q1.0625 0.15625 1.90625 0.40625l0 3.703125q-0.96875 -0.484375 -2.109375 -0.75q-1.125 -0.265625 -2.140625 -0.265625q-1.0625 0 -1.90625 0.359375q-0.84375 0.359375 -1.421875 1.0q-0.578125 0.640625 -0.890625 1.5625q-0.296875 0.90625 -0.296875 2.0q0 1.140625 0.328125 2.046875q0.328125 0.90625 0.921875 1.546875q0.609375 0.625 1.453125 0.96875q0.84375 0.328125 1.875 0.328125q0.5 0 1.046875 -0.0625q0.5625 -0.078125 1.109375 -0.203125q0.5625 -0.140625 1.09375 -0.3125q0.546875 -0.171875 1.015625 -0.375l0 3.390625zm14.578125 0.609375l-5.859375 -7.9375l0 7.9375l-3.8125 0l0 -22.078125l3.8125 0l0 12.921875l5.546875 -6.71875l4.765625 0l-6.4375 7.234375l6.96875 8.640625l-4.984375 0zm9.53125 -6.8125l0 -3.390625l9.71875 0l0 3.390625l-9.71875 0z" fill-rule="nonzero"/><path fill="#38761d" d="m732.38776 321.4248q-0.6875 -0.21875 -1.640625 -0.359375q-0.9375 -0.15625 -1.921875 -0.15625q-0.671875 0 -1.25 0.1875q-0.578125 0.171875 -1.0 0.5625q-0.421875 0.390625 -0.671875 1.0q-0.234375 0.59375 -0.234375 1.453125l0 2.5625l6.234375 0l0 2.96875l-6.234375 0l0 10.625l-3.84375 0l0 -10.625l-4.609375 0l0 -2.96875l4.609375 0l0 -2.40625q0 -1.6875 0.484375 -2.890625q0.5 -1.21875 1.390625 -1.984375q0.90625 -0.78125 2.171875 -1.140625q1.265625 -0.359375 2.828125 -0.359375q1.03125 0 1.953125 0.140625q0.9375 0.125 1.734375 0.3125l0 3.078125zm-16.421875 2.96875l0 0zm29.109375 -4.34375q0 0.515625 -0.1875 0.96875q-0.1875 0.453125 -0.53125 0.796875q-0.328125 0.328125 -0.78125 0.53125q-0.453125 0.1875 -0.984375 0.1875q-0.53125 0 -1.0 -0.1875q-0.453125 -0.203125 -0.796875 -0.53125q-0.328125 -0.34375 -0.515625 -0.796875q-0.1875 -0.453125 -0.1875 -0.96875q0 -0.515625 0.1875 -0.96875q0.1875 -0.453125 0.515625 -0.796875q0.34375 -0.34375 0.796875 -0.53125q0.46875 -0.203125 1.0 -0.203125q0.53125 0 0.984375 0.203125q0.453125 0.1875 0.78125 0.53125q0.34375 0.34375 0.53125 0.796875q0.1875 0.453125 0.1875 0.96875zm-4.21875 7.3125l-4.484375 0l0 -2.96875l8.390625 0l0 12.90625l4.578125 0l0 2.96875l-13.515625 0l0 -2.96875l5.03125 0l0 -9.9375zm17.59375 -6.203125l-4.484375 0l0 -2.96875l8.390625 0l0 19.109375l4.578125 0l0 2.96875l-13.515625 0l0 -2.96875l5.03125 0l0 -16.140625zm17.59375 0l-4.484375 0l0 -2.96875l8.390625 0l0 19.109375l4.578125 0l0 2.96875l-13.515625 0l0 -2.96875l5.03125 0l0 -16.140625zm16.125 -4.1875q3.828125 3.1875 5.703125 6.890625q1.875 3.6875 1.875 7.953125q0 2.375 -0.5625 4.484375q-0.5625 2.109375 -1.578125 3.984375q-1.0 1.875 -2.40625 3.5q-1.40625 1.640625 -3.09375 3.046875l-2.1875 -2.171875q3.0625 -2.734375 4.59375 -5.921875q1.53125 -3.1875 1.53125 -6.6875q0 -3.53125 -1.53125 -6.8125q-1.53125 -3.28125 -4.59375 -6.0l2.25 -2.265625z" fill-rule="nonzero"/><path fill="#000000" fill-opacity="0.0" d="m448.3596 188.68767l232.28348 0l0 236.91338l-232.28348 0z" fill-rule="evenodd"/><path stroke="#ff9900" stroke-width="4.0" stroke-linejoin="round" stroke-linecap="butt" d="m448.3596 188.68767l232.28348 0l0 236.91338l-232.28348 0z" fill-rule="evenodd"/><path fill="#000000" fill-opacity="0.0" d="m469.8714 441.39633l218.86615 0l0 45.543304l-218.86615 0z" fill-rule="evenodd"/><path fill="#ff9900" d="m495.32452 472.89758q0 2.1875 -0.625 3.78125q-0.609375 1.59375 -1.71875 2.65625q-1.09375 1.046875 -2.59375 1.5625q-1.5 0.5 -3.265625 0.5q-0.59375 0 -1.1875 -0.078125q-0.59375 -0.078125 -1.078125 -0.203125l0 6.203125l-3.8125 0l0 -22.078125l3.296875 0l0.09375 2.34375q0.484375 -0.609375 1.0 -1.109375q0.53125 -0.5 1.140625 -0.84375q0.609375 -0.359375 1.3125 -0.546875q0.703125 -0.1875 1.578125 -0.1875q1.40625 0 2.5 0.5625q1.09375 0.5625 1.828125 1.609375q0.75 1.03125 1.140625 2.515625q0.390625 1.46875 0.390625 3.3125zm-4.0 0.15625q0 -1.3125 -0.1875 -2.234375q-0.1875 -0.921875 -0.546875 -1.515625q-0.34375 -0.59375 -0.859375 -0.859375q-0.5 -0.28125 -1.15625 -0.28125q-0.96875 0 -1.859375 0.78125q-0.875 0.78125 -1.859375 2.125l0 6.9375q0.453125 0.171875 1.109375 0.28125q0.671875 0.109375 1.359375 0.109375q0.90625 0 1.640625 -0.375q0.75 -0.375 1.265625 -1.0625q0.53125 -0.6875 0.8125 -1.671875q0.28125 -1.0 0.28125 -2.234375zm17.265625 8.0625l-0.09375 -2.078125q-0.5 0.53125 -1.046875 0.984375q-0.546875 0.4375 -1.203125 0.765625q-0.65625 0.328125 -1.4375 0.5q-0.765625 0.1875 -1.6875 0.1875q-1.21875 0 -2.140625 -0.359375q-0.921875 -0.359375 -1.546875 -1.0q-0.625 -0.640625 -0.953125 -1.546875q-0.3125 -0.90625 -0.3125 -2.0q0 -1.125 0.46875 -2.078125q0.484375 -0.953125 1.453125 -1.640625q0.984375 -0.6875 2.4375 -1.078125q1.46875 -0.390625 3.4375 -0.390625l2.078125 0l0 -0.953125q0 -0.609375 -0.171875 -1.09375q-0.171875 -0.5 -0.5625 -0.84375q-0.375 -0.34375 -0.984375 -0.53125q-0.609375 -0.1875 -1.5 -0.1875q-1.40625 0 -2.78125 0.328125q-1.359375 0.3125 -2.640625 0.890625l0 -3.046875q1.140625 -0.453125 2.625 -0.75q1.5 -0.296875 3.109375 -0.296875q1.765625 0 3.03125 0.34375q1.265625 0.328125 2.078125 1.0q0.828125 0.671875 1.21875 1.6875q0.390625 1.0 0.390625 2.34375l0 10.84375l-3.265625 0zm-0.546875 -7.015625l-2.328125 0q-0.96875 0 -1.640625 0.1875q-0.671875 0.1875 -1.09375 0.515625q-0.421875 0.328125 -0.625 0.765625q-0.1875 0.421875 -0.1875 0.90625q0 0.96875 0.625 1.484375q0.625 0.5 1.703125 0.5q0.796875 0 1.65625 -0.578125q0.859375 -0.578125 1.890625 -1.65625l0 -2.125zm18.40625 -2.6875q0.03125 -0.890625 -0.09375 -1.515625q-0.109375 -0.625 -0.375 -1.03125q-0.25 -0.40625 -0.625 -0.59375q-0.375 -0.1875 -0.859375 -0.1875q-0.84375 0 -1.75 0.703125q-0.890625 0.6875 -1.96875 2.28125l0 10.046875l-3.90625 0l0 -15.875l3.453125 0l0.140625 2.3125q0.390625 -0.609375 0.875 -1.09375q0.5 -0.484375 1.09375 -0.828125q0.609375 -0.359375 1.34375 -0.546875q0.734375 -0.1875 1.609375 -0.1875q1.203125 0 2.125 0.421875q0.9375 0.40625 1.5625 1.21875q0.640625 0.8125 0.9375 2.046875q0.3125 1.21875 0.265625 2.828125l-3.828125 0zm20.46875 9.546875q-1.03125 0.234375 -2.078125 0.375q-1.046875 0.140625 -1.984375 0.140625q-1.5625 0 -2.703125 -0.328125q-1.125 -0.328125 -1.875 -1.0q-0.734375 -0.671875 -1.09375 -1.703125q-0.34375 -1.046875 -0.34375 -2.484375l0 -7.75l-4.265625 0l0 -2.96875l4.265625 0l0 -4.0625l3.90625 -1.015625l0 5.078125l6.171875 0l0 2.96875l-6.171875 0l0 7.46875q0 1.359375 0.625 2.0625q0.625 0.6875 2.09375 0.6875q0.9375 0 1.828125 -0.15625q0.890625 -0.15625 1.625 -0.359375l0 3.046875zm14.171875 6.71875q-3.796875 -3.21875 -5.703125 -6.90625q-1.890625 -3.6875 -1.890625 -7.9375q0 -2.375 0.5625 -4.484375q0.5625 -2.125 1.578125 -3.984375q1.03125 -1.859375 2.4375 -3.484375q1.421875 -1.640625 3.109375 -3.0625l2.171875 2.171875q-3.046875 2.734375 -4.578125 5.90625q-1.53125 3.171875 -1.53125 6.671875q0 3.546875 1.53125 6.828125q1.53125 3.265625 4.578125 5.96875l-2.265625 2.3125zm21.015625 -6.71875q-1.03125 0.234375 -2.078125 0.375q-1.046875 0.140625 -1.984375 0.140625q-1.5625 0 -2.703125 -0.328125q-1.125 -0.328125 -1.875 -1.0q-0.734375 -0.671875 -1.09375 -1.703125q-0.34375 -1.046875 -0.34375 -2.484375l0 -7.75l-4.265625 0l0 -2.96875l4.265625 0l0 -4.0625l3.90625 -1.015625l0 5.078125l6.171875 0l0 2.96875l-6.171875 0l0 7.46875q0 1.359375 0.625 2.0625q0.625 0.6875 2.09375 0.6875q0.9375 0 1.828125 -0.15625q0.890625 -0.15625 1.625 -0.359375l0 3.046875zm13.96875 0.15625l0 -10.34375q0 -2.609375 -1.9375 -2.609375q-0.96875 0 -1.859375 0.78125q-0.875 0.78125 -1.859375 2.125l0 10.046875l-3.8125 0l0 -22.078125l3.8125 0l0 5.4375l-0.1875 2.875q0.484375 -0.578125 0.984375 -1.03125q0.5 -0.46875 1.078125 -0.78125q0.578125 -0.3125 1.25 -0.46875q0.671875 -0.171875 1.484375 -0.171875q1.21875 0 2.125 0.40625q0.90625 0.390625 1.515625 1.125q0.609375 0.71875 0.90625 1.75q0.3125 1.015625 0.3125 2.28125l0 10.65625l-3.8125 0zm11.90625 -15.875l0 10.34375q0 1.296875 0.484375 1.96875q0.484375 0.65625 1.46875 0.65625q0.953125 0 1.828125 -0.78125q0.890625 -0.796875 1.875 -2.140625l0 -10.046875l3.8125 0l0 15.875l-3.296875 0l-0.09375 -2.34375q-0.5 0.609375 -1.015625 1.109375q-0.515625 0.5 -1.125 0.859375q-0.59375 0.34375 -1.3125 0.53125q-0.703125 0.203125 -1.5625 0.203125q-1.21875 0 -2.140625 -0.390625q-0.90625 -0.40625 -1.515625 -1.140625q-0.609375 -0.734375 -0.921875 -1.75q-0.296875 -1.03125 -0.296875 -2.296875l0 -10.65625l3.8125 0zm25.015625 15.875l0 -10.8125q0 -0.59375 -0.03125 -1.03125q-0.03125 -0.453125 -0.125 -0.75q-0.09375 -0.296875 -0.28125 -0.4375q-0.171875 -0.15625 -0.484375 -0.15625q-0.484375 0 -0.953125 0.65625q-0.46875 0.65625 -1.0625 2.234375l0 10.296875l-3.265625 0l0 -10.8125q0 -0.59375 -0.03125 -1.03125q-0.03125 -0.453125 -0.125 -0.75q-0.09375 -0.296875 -0.28125 -0.4375q-0.1875 -0.15625 -0.5 -0.15625q-0.40625 0 -0.90625 0.65625q-0.5 0.65625 -1.109375 2.234375l0 10.296875l-3.296875 0l0 -15.875l2.828125 0l0.0625 2.3125q0.34375 -0.703125 0.6875 -1.203125q0.34375 -0.5 0.734375 -0.8125q0.390625 -0.328125 0.828125 -0.46875q0.453125 -0.140625 1.015625 -0.140625q1.328125 0 2.015625 0.703125q0.703125 0.6875 0.796875 1.921875q0.375 -0.703125 0.734375 -1.203125q0.375 -0.5 0.765625 -0.8125q0.40625 -0.328125 0.859375 -0.46875q0.46875 -0.140625 1.03125 -0.140625q1.734375 0 2.5625 1.21875q0.828125 1.203125 0.828125 3.578125l0 11.390625l-3.296875 0zm20.671875 -8.21875q0 2.1875 -0.625 3.78125q-0.609375 1.59375 -1.71875 2.65625q-1.09375 1.046875 -2.59375 1.5625q-1.5 0.5 -3.265625 0.5q-1.734375 0 -3.234375 -0.265625q-1.484375 -0.25 -2.84375 -0.6875l0 -21.40625l3.8125 0l0 5.1875l-0.15625 3.125q0.859375 -1.109375 2.0 -1.78125q1.15625 -0.671875 2.765625 -0.671875q1.40625 0 2.5 0.5625q1.09375 0.5625 1.828125 1.609375q0.75 1.03125 1.140625 2.515625q0.390625 1.46875 0.390625 3.3125zm-4.0 0.15625q0 -1.3125 -0.1875 -2.234375q-0.1875 -0.921875 -0.546875 -1.515625q-0.34375 -0.59375 -0.859375 -0.859375q-0.5 -0.28125 -1.15625 -0.28125q-0.96875 0 -1.859375 0.78125q-0.875 0.78125 -1.859375 2.125l0 6.9375q0.453125 0.171875 1.109375 0.28125q0.671875 0.109375 1.359375 0.109375q0.90625 0 1.640625 -0.375q0.75 -0.375 1.265625 -1.0625q0.53125 -0.6875 0.8125 -1.671875q0.28125 -1.0 0.28125 -2.234375zm10.96875 -15.234375q3.828125 3.1875 5.703125 6.890625q1.875 3.6875 1.875 7.953125q0 2.375 -0.5625 4.484375q-0.5625 2.109375 -1.578125 3.984375q-1.0 1.875 -2.40625 3.5q-1.40625 1.640625 -3.09375 3.046875l-2.1875 -2.171875q3.0625 -2.734375 4.59375 -5.921875q1.53125 -3.1875 1.53125 -6.6875q0 -3.53125 -1.53125 -6.8125q-1.53125 -3.28125 -4.59375 -6.0l2.25 -2.265625z" fill-rule="nonzero"/></g></svg>